IKResults
version=1
nRows=11
nColumns=40
inDegrees=yes

Units are S.I. units (second, meters, Newtons, ...)
Angles are in degrees.

endheader
time	pelvis_tilt	pelvis_list	pelvis_rotation	pelvis_tx	pelvis_ty	pelvis_tz	hip_flexion_r	hip_adduction_r	hip_rotation_r	knee_angle_r	knee_angle_r_beta	ankle_angle_r	subtalar_angle_r	mtp_angle_r	hip_flexion_l	hip_adduction_l	hip_rotation_l	knee_angle_l	knee_angle_l_beta	ankle_angle_l	subtalar_angle_l	mtp_angle_l	lumbar_extension	lumbar_bending	lumbar_rotation	arm_flex_r	arm_add_r	arm_rot_r	elbow_flex_r	pro_sup_r	wrist_flex_r	wrist_dev_r	arm_flex_l	arm_add_l	arm_rot_l	elbow_flex_l	pro_sup_l	wrist_flex_l	wrist_dev_l
      0.00000000	     -7.24797102	     -6.22024998	      8.85306662	     -1.00555982	      0.87067747	     -1.01197908	     38.56793892	      1.62054569	    -16.25640142	    -31.77233707	     -0.55453189	      1.16258856	    -17.74649142	     14.07662421	     -8.63170360	      7.69277948	      3.98066544	    -31.19732263	     -0.54449600	      5.44986260	     18.71573202	     17.85890399	      0.94642833	      7.31733434	    -10.75900137	    -12.08669373	    -11.46890106	     -5.36472220	     19.39884162	     89.95437384	      0.00000000	      0.00000000	      8.05287955	      8.33217957	      2.19016435	     63.75687188	     89.95437384	      0.00000000	      0.00000000
      0.01000000	     -7.26115291	     -6.38483521	      8.71016340	     -0.99246044	      0.87401044	     -1.01062019	     37.44952543	      2.44373535	    -15.52082794	    -31.33123525	     -0.54683321	      2.20263792	    -17.91289405	     16.05584267	     -7.33246845	      7.99893244	      4.06114714	    -34.17922146	     -0.59653995	      3.65821426	     18.83746937	     20.40502560	      1.10530412	      7.45730144	    -10.57697938	    -12.04758952	    -11.31301586	     -5.57191303	     19.91420576	     89.95437384	      0.00000000	      0.00000000	      7.91276856	      8.27392739	      2.10926717	     62.61109400	     89.95437384	      0.00000000	      0.00000000
      0.02000000	     -6.92919914	     -6.14340924	      8.62720826	     -0.97923523	      0.87785747	     -1.00973828	     35.93543236	      2.69047113	    -15.10458536	    -31.06687164	     -0.54221920	      3.17153179	    -17.79925689	     15.60427201	     -6.25550548	      7.89515314	      4.00464368	    -37.23344517	     -0.64984621	      1.25800571	     19.03076405	     20.60165225	      0.82603933	      7.21798147	    -10.41323715	    -11.97134445	    -11.20674529	     -5.37808272	     20.58731090	     89.95437384	      0.00000000	      0.00000000	      7.73020822	      8.13742111	      2.14070038	     61.22821893	     89.95437384	      0.00000000	      0.00000000
      0.03000000	     -6.77460657	     -6.24718515	      8.59493321	     -0.96635940	      0.88124669	     -1.00862099	     34.53771544	      3.21293537	    -14.96112014	    -30.51658653	     -0.53261491	      3.98014504	    -17.74214380	     15.30185376	     -4.83254430	      8.15463598	      3.95712935	    -40.17671382	     -0.70121594	     -1.18359387	     19.13774713	     21.10980758	      0.77559030	      7.32160377	    -10.23362428	    -11.98913479	    -11.16127022	     -4.83828075	     21.36833179	     89.95437384	      0.00000000	      0.00000000	      7.63599967	      8.01348074	      2.11755609	     59.81229246	     89.95437384	      0.00000000	      0.00000000
      0.04000000	     -6.92597217	     -6.59942889	      8.37521596	     -0.95437590	      0.88395425	     -1.00706006	     33.48237188	      3.97335135	    -14.94311753	    -29.74692896	     -0.51918185	      4.27652333	    -17.74450924	     15.25901850	     -2.73405982	      8.74835869	      4.24587321	    -43.43046145	     -0.75800455	     -2.53981281	     19.18642888	     22.40204244	      0.98909008	      7.64049159	     -9.84007131	    -12.01191583	    -11.22718027	     -4.26775905	     22.30306329	     89.95437384	      0.00000000	      0.00000000	      7.48350257	      7.83427424	      2.10139701	     58.39489446	     89.95437384	      0.00000000	      0.00000000
      0.05000000	     -6.59539304	     -6.13042860	      7.95138084	     -0.94227523	      0.88732892	     -1.00582650	     31.98140198	      3.87913341	    -14.94712750	    -29.46183970	     -0.51420611	      4.80455666	    -17.42049565	     14.95367997	     -1.63869580	      8.29213352	      4.46754855	    -45.82070553	     -0.79972218	     -3.25534254	     19.30714266	     22.26232526	      0.46159783	      7.13324899	     -9.21709761	    -11.67481216	    -11.08393569	     -4.01088308	     22.89452522	     89.95437384	      0.00000000	      0.00000000	      7.33949585	      7.68495427	      2.34724037	     57.03955894	     89.95437384	      0.00000000	      0.00000000
      0.06000000	     -6.76651372	     -6.56068513	      7.84754943	     -0.93074097	      0.88973181	     -1.00445241	     30.88010320	      4.69402083	    -14.82183822	    -28.51753659	     -0.49772491	      5.64085711	    -17.15641088	     14.55259968	      0.49960203	      8.87328059	      4.38188445	    -48.50791759	     -0.84662288	     -3.43770674	     19.27235673	     22.70499129	      0.70731170	      7.55881645	     -8.90629624	    -11.70120961	    -11.21007191	     -3.43623208	     24.04191961	     89.95437384	      0.00000000	      0.00000000	      7.35222962	      7.47938314	      2.33938378	     55.08364697	     89.95437384	      0.00000000	      0.00000000
      0.07000000	     -6.82882657	     -6.59111456	      7.60569869	     -0.91937259	      0.89214027	     -1.00334755	     29.76348454	      5.05056855	    -14.76985596	    -27.87537915	     -0.48651715	      5.98939681	    -17.05260402	     14.20108927	      2.29586247	      8.83776457	      4.19541493	    -50.73332672	     -0.88546359	     -1.80165702	     19.20427214	     22.69640058	      0.68423298	      7.57222521	     -8.45586012	    -11.44956548	    -11.27447512	     -2.93310552	     24.84220925	     89.95437384	      0.00000000	      0.00000000	      7.15970941	      7.23153197	      2.61468704	     53.49399219	     89.95437384	      0.00000000	      0.00000000
      0.08000000	     -6.69266903	     -6.30244707	      7.47299592	     -0.90790364	      0.89481930	     -1.00292429	     28.37904523	      5.02894709	    -14.64569393	    -27.27749325	     -0.47608207	      6.68334925	    -16.72981428	     13.75928049	      3.74186594	      8.30111012	      3.76107229	    -52.44120918	     -0.91527176	     -0.04516490	     19.13160000	     22.04995028	      0.43201205	      7.29304152	     -8.10922027	    -11.05891315	    -11.31034293	     -2.58974324	     25.43993072	     89.95437384	      0.00000000	      0.00000000	      6.99125065	      6.97347284	      2.98745774	     51.73230986	     89.95437384	      0.00000000	      0.00000000
      0.09000000	     -6.53997306	     -5.98210811	      7.30276988	     -0.89651015	      0.89732082	     -1.00225407	     26.98682587	      5.00853598	    -14.51406057	    -26.67002933	     -0.46547982	      7.26035584	    -16.37749901	     13.29395570	      5.22758426	      7.74788978	      3.38125146	    -53.96431064	     -0.94185490	      1.48499466	     19.04360904	     21.27190677	      0.14144185	      6.95902319	     -7.73942975	    -10.64060234	    -11.32554479	     -2.27962179	     26.06830664	     89.95437384	      0.00000000	      0.00000000	      6.78491218	      6.77874651	      3.41696851	     49.97634116	     89.95437384	      0.00000000	      0.00000000
      0.10000000	     -6.43765065	     -5.71960214	      7.20751415	     -0.88519468	      0.89957752	     -1.00172479	     25.63056926	      4.98155465	    -14.53123923	    -25.98334574	     -0.45349493	      7.80641234	    -15.99630398	     12.80427980	      6.82566342	      7.19313485	      2.87975897	    -55.27180757	     -0.96467503	      2.83601457	     18.94192709	     20.52364092	     -0.05408924	      6.67938197	     -7.45119718	    -10.21515458	    -11.36980892	     -1.94572609	     26.71017997	     89.95437384	      0.00000000	      0.00000000	      6.55209723	      6.57943317	      3.86006064	     48.10310258	     89.95437384	      0.00000000	      0.00000000
